<?xml version="1.0" encoding="UTF-8" standalone="no"?>
<!DOCTYPE svg PUBLIC "-//W3C//DTD SVG 1.1//EN"
 "http://www.w3.org/Graphics/SVG/1.1/DTD/svg11.dtd">
<!-- Generated by graphviz version 12.2.1 (0)
 -->
<!-- Pages: 1 -->
<svg width="327pt" height="332pt"
 viewBox="0.00 0.00 326.67 332.00" xmlns="http://www.w3.org/2000/svg" xmlns:xlink="http://www.w3.org/1999/xlink">
<g id="graph0" class="graph" transform="scale(1 1) rotate(0) translate(4 328)">
<polygon fill="white" stroke="none" points="-4,4 -4,-328 322.67,-328 322.67,4 -4,4"/>
<!-- a -->
<g id="node1" class="node">
<title>a</title>
<ellipse fill="none" stroke="black" cx="40.67" cy="-306" rx="27" ry="18"/>
<text text-anchor="middle" x="40.67" y="-300.95" font-family="Times,serif" font-size="14.00">a</text>
</g>
<!-- c -->
<g id="node2" class="node">
<title>c</title>
<ellipse fill="none" stroke="black" cx="109.67" cy="-234" rx="27" ry="18"/>
<text text-anchor="middle" x="109.67" y="-228.95" font-family="Times,serif" font-size="14.00">c</text>
</g>
<!-- a&#45;&#45;c -->
<g id="edge1" class="edge">
<title>a&#45;&#45;c</title>
<path fill="none" stroke="black" d="M54.97,-290.5C66.81,-278.48 83.56,-261.49 95.39,-249.49"/>
</g>
<!-- f -->
<g id="node3" class="node">
<title>f</title>
<ellipse fill="none" stroke="black" cx="109.67" cy="-162" rx="27" ry="18"/>
<text text-anchor="middle" x="109.67" y="-156.95" font-family="Times,serif" font-size="14.00">f</text>
</g>
<!-- a&#45;&#45;f -->
<g id="edge2" class="edge">
<title>a&#45;&#45;f</title>
<path fill="none" stroke="black" d="M45.6,-288.09C51.23,-269.79 61.29,-240.02 73.67,-216 80.5,-202.75 90.04,-188.85 97.59,-178.61"/>
</g>
<!-- g -->
<g id="node4" class="node">
<title>g</title>
<ellipse fill="none" stroke="black" cx="54.67" cy="-90" rx="27" ry="18"/>
<text text-anchor="middle" x="54.67" y="-84.95" font-family="Times,serif" font-size="14.00">g</text>
</g>
<!-- a&#45;&#45;g -->
<g id="edge3" class="edge">
<title>a&#45;&#45;g</title>
<path fill="none" stroke="black" d="M41.79,-287.85C44.42,-247.78 50.92,-148.38 53.55,-108.23"/>
</g>
<!-- j -->
<g id="node5" class="node">
<title>j</title>
<ellipse fill="none" stroke="black" cx="109.67" cy="-18" rx="27" ry="18"/>
<text text-anchor="middle" x="109.67" y="-12.95" font-family="Times,serif" font-size="14.00">j</text>
</g>
<!-- a&#45;&#45;j -->
<g id="edge4" class="edge">
<title>a&#45;&#45;j</title>
<path fill="none" stroke="black" d="M32.95,-288.37C15.49,-248.12 -22.43,-143.51 18.67,-72 32.8,-47.43 63.18,-33.18 84.95,-25.77"/>
</g>
<!-- c&#45;&#45;f -->
<g id="edge7" class="edge">
<title>c&#45;&#45;f</title>
<path fill="none" stroke="black" d="M109.67,-215.7C109.67,-204.85 109.67,-190.92 109.67,-180.1"/>
</g>
<!-- c&#45;&#45;g -->
<g id="edge8" class="edge">
<title>c&#45;&#45;g</title>
<path fill="none" stroke="black" d="M96.92,-217.7C89.11,-207.59 79.53,-193.71 73.67,-180 63.56,-156.31 58.62,-126.71 56.37,-108.33"/>
</g>
<!-- c&#45;&#45;j -->
<g id="edge9" class="edge">
<title>c&#45;&#45;j</title>
<path fill="none" stroke="black" d="M123.42,-218.07C131.63,-208.1 141.29,-194.25 145.67,-180 161.67,-127.98 134.09,-64.49 118.81,-35.21"/>
</g>
<!-- f&#45;&#45;g -->
<g id="edge14" class="edge">
<title>f&#45;&#45;g</title>
<path fill="none" stroke="black" d="M97.47,-145.46C88.35,-133.86 75.95,-118.08 66.85,-106.49"/>
</g>
<!-- f&#45;&#45;j -->
<g id="edge15" class="edge">
<title>f&#45;&#45;j</title>
<path fill="none" stroke="black" d="M109.67,-143.59C109.67,-116.19 109.67,-63.32 109.67,-36.11"/>
</g>
<!-- g&#45;&#45;j -->
<g id="edge16" class="edge">
<title>g&#45;&#45;j</title>
<path fill="none" stroke="black" d="M66.88,-73.46C75.99,-61.86 88.39,-46.08 97.5,-34.49"/>
</g>
<!-- b -->
<g id="node6" class="node">
<title>b</title>
<ellipse fill="none" stroke="black" cx="122.67" cy="-306" rx="27" ry="18"/>
<text text-anchor="middle" x="122.67" y="-300.95" font-family="Times,serif" font-size="14.00">b</text>
</g>
<!-- b&#45;&#45;c -->
<g id="edge5" class="edge">
<title>b&#45;&#45;c</title>
<path fill="none" stroke="black" d="M119.46,-287.7C117.44,-276.85 114.86,-262.92 112.85,-252.1"/>
</g>
<!-- d -->
<g id="node7" class="node">
<title>d</title>
<ellipse fill="none" stroke="black" cx="200.67" cy="-234" rx="27" ry="18"/>
<text text-anchor="middle" x="200.67" y="-228.95" font-family="Times,serif" font-size="14.00">d</text>
</g>
<!-- b&#45;&#45;d -->
<g id="edge6" class="edge">
<title>b&#45;&#45;d</title>
<path fill="none" stroke="black" d="M138.08,-291.17C151.67,-278.98 171.37,-261.3 185.03,-249.04"/>
</g>
<!-- d&#45;&#45;f -->
<g id="edge11" class="edge">
<title>d&#45;&#45;f</title>
<path fill="none" stroke="black" d="M183.56,-219.83C167.39,-207.4 143.26,-188.84 127.02,-176.35"/>
</g>
<!-- e -->
<g id="node8" class="node">
<title>e</title>
<ellipse fill="none" stroke="black" cx="219.67" cy="-162" rx="27" ry="18"/>
<text text-anchor="middle" x="219.67" y="-156.95" font-family="Times,serif" font-size="14.00">e</text>
</g>
<!-- d&#45;&#45;e -->
<g id="edge10" class="edge">
<title>d&#45;&#45;e</title>
<path fill="none" stroke="black" d="M205.27,-216.05C208.26,-205.05 212.14,-190.76 215.12,-179.79"/>
</g>
<!-- h -->
<g id="node9" class="node">
<title>h</title>
<ellipse fill="none" stroke="black" cx="291.67" cy="-162" rx="27" ry="18"/>
<text text-anchor="middle" x="291.67" y="-156.95" font-family="Times,serif" font-size="14.00">h</text>
</g>
<!-- d&#45;&#45;h -->
<g id="edge12" class="edge">
<title>d&#45;&#45;h</title>
<path fill="none" stroke="black" d="M217.79,-219.83C233.96,-207.4 258.08,-188.84 274.32,-176.35"/>
</g>
<!-- i -->
<g id="node10" class="node">
<title>i</title>
<ellipse fill="none" stroke="black" cx="219.67" cy="-90" rx="27" ry="18"/>
<text text-anchor="middle" x="219.67" y="-84.95" font-family="Times,serif" font-size="14.00">i</text>
</g>
<!-- e&#45;&#45;i -->
<g id="edge13" class="edge">
<title>e&#45;&#45;i</title>
<path fill="none" stroke="black" d="M219.67,-143.7C219.67,-132.85 219.67,-118.92 219.67,-108.1"/>
</g>
<!-- h&#45;&#45;i -->
<g id="edge17" class="edge">
<title>h&#45;&#45;i</title>
<path fill="none" stroke="black" d="M276.75,-146.5C264.4,-134.48 246.92,-117.49 234.57,-105.49"/>
</g>
<!-- i&#45;&#45;j -->
<g id="edge18" class="edge">
<title>i&#45;&#45;j</title>
<path fill="none" stroke="black" d="M200.51,-76.81C180.32,-63.96 148.72,-43.85 128.61,-31.05"/>
</g>
</g>
</svg>
