<?xml version="1.0" encoding="UTF-8" standalone="no"?>
<!DOCTYPE svg PUBLIC "-//W3C//DTD SVG 1.1//EN"
 "http://www.w3.org/Graphics/SVG/1.1/DTD/svg11.dtd">
<!-- Generated by graphviz version 12.2.1 (0)
 -->
<!-- Pages: 1 -->
<svg width="303pt" height="332pt"
 viewBox="0.00 0.00 303.00 332.00" xmlns="http://www.w3.org/2000/svg" xmlns:xlink="http://www.w3.org/1999/xlink">
<g id="graph0" class="graph" transform="scale(1 1) rotate(0) translate(4 328)">
<polygon fill="white" stroke="none" points="-4,4 -4,-328 299,-328 299,4 -4,4"/>
<!-- a -->
<g id="node1" class="node">
<title>a</title>
<ellipse fill="none" stroke="black" cx="73" cy="-306" rx="27" ry="18"/>
<text text-anchor="middle" x="73" y="-300.95" font-family="Times,serif" font-size="14.00">a</text>
</g>
<!-- b -->
<g id="node2" class="node">
<title>b</title>
<ellipse fill="none" stroke="black" cx="27" cy="-234" rx="27" ry="18"/>
<text text-anchor="middle" x="27" y="-228.95" font-family="Times,serif" font-size="14.00">b</text>
</g>
<!-- a&#45;&#45;b -->
<g id="edge1" class="edge">
<title>a&#45;&#45;b</title>
<path fill="none" stroke="black" d="M62.56,-289.12C55.03,-277.66 44.92,-262.26 37.4,-250.82"/>
</g>
<!-- d -->
<g id="node3" class="node">
<title>d</title>
<ellipse fill="none" stroke="black" cx="27" cy="-162" rx="27" ry="18"/>
<text text-anchor="middle" x="27" y="-156.95" font-family="Times,serif" font-size="14.00">d</text>
</g>
<!-- b&#45;&#45;d -->
<g id="edge2" class="edge">
<title>b&#45;&#45;d</title>
<path fill="none" stroke="black" d="M27,-215.7C27,-204.85 27,-190.92 27,-180.1"/>
</g>
<!-- c -->
<g id="node4" class="node">
<title>c</title>
<ellipse fill="none" stroke="black" cx="54" cy="-90" rx="27" ry="18"/>
<text text-anchor="middle" x="54" y="-84.95" font-family="Times,serif" font-size="14.00">c</text>
</g>
<!-- d&#45;&#45;c -->
<g id="edge3" class="edge">
<title>d&#45;&#45;c</title>
<path fill="none" stroke="black" d="M33.54,-144.05C37.78,-133.05 43.29,-118.76 47.52,-107.79"/>
</g>
<!-- c&#45;&#45;a -->
<g id="edge4" class="edge">
<title>c&#45;&#45;a</title>
<path fill="none" stroke="black" d="M57.38,-108.12C59.31,-118.47 61.61,-131.95 63,-144 69.02,-196.02 71.58,-257.95 72.52,-287.55"/>
</g>
<!-- e -->
<g id="node5" class="node">
<title>e</title>
<ellipse fill="none" stroke="black" cx="54" cy="-18" rx="27" ry="18"/>
<text text-anchor="middle" x="54" y="-12.95" font-family="Times,serif" font-size="14.00">e</text>
</g>
<!-- c&#45;&#45;e -->
<g id="edge5" class="edge">
<title>c&#45;&#45;e</title>
<path fill="none" stroke="black" d="M54,-71.7C54,-60.85 54,-46.92 54,-36.1"/>
</g>
<!-- a1 -->
<g id="node6" class="node">
<title>a1</title>
<ellipse fill="none" stroke="black" cx="164" cy="-306" rx="27" ry="18"/>
<text text-anchor="middle" x="164" y="-300.95" font-family="Times,serif" font-size="14.00">a1</text>
</g>
<!-- b1 -->
<g id="node7" class="node">
<title>b1</title>
<ellipse fill="none" stroke="black" cx="146" cy="-234" rx="27" ry="18"/>
<text text-anchor="middle" x="146" y="-228.95" font-family="Times,serif" font-size="14.00">b1</text>
</g>
<!-- a1&#45;&#45;b1 -->
<g id="edge6" class="edge">
<title>a1&#45;&#45;b1</title>
<path fill="none" stroke="black" d="M159.64,-288.05C156.81,-277.05 153.14,-262.76 150.32,-251.79"/>
</g>
<!-- c1 -->
<g id="node8" class="node">
<title>c1</title>
<ellipse fill="none" stroke="black" cx="196" cy="-162" rx="27" ry="18"/>
<text text-anchor="middle" x="196" y="-156.95" font-family="Times,serif" font-size="14.00">c1</text>
</g>
<!-- a1&#45;&#45;c1 -->
<g id="edge7" class="edge">
<title>a1&#45;&#45;c1</title>
<path fill="none" stroke="black" d="M170.42,-288.51C174.24,-278.16 178.93,-264.45 182,-252 188.07,-227.4 192.06,-198.29 194.18,-180.24"/>
</g>
<!-- b1&#45;&#45;c1 -->
<g id="edge8" class="edge">
<title>b1&#45;&#45;c1</title>
<path fill="none" stroke="black" d="M157.1,-217.46C165.38,-205.86 176.66,-190.08 184.93,-178.49"/>
</g>
<!-- d1 -->
<g id="node9" class="node">
<title>d1</title>
<ellipse fill="none" stroke="black" cx="260" cy="-234" rx="27" ry="18"/>
<text text-anchor="middle" x="260" y="-228.95" font-family="Times,serif" font-size="14.00">d1</text>
</g>
<!-- d1&#45;&#45;c1 -->
<g id="edge9" class="edge">
<title>d1&#45;&#45;c1</title>
<path fill="none" stroke="black" d="M246.43,-218.15C235.57,-206.28 220.41,-189.7 209.55,-177.82"/>
</g>
<!-- e1 -->
<g id="node10" class="node">
<title>e1</title>
<ellipse fill="none" stroke="black" cx="268" cy="-162" rx="27" ry="18"/>
<text text-anchor="middle" x="268" y="-156.95" font-family="Times,serif" font-size="14.00">e1</text>
</g>
<!-- d1&#45;&#45;e1 -->
<g id="edge10" class="edge">
<title>d1&#45;&#45;e1</title>
<path fill="none" stroke="black" d="M261.98,-215.7C263.22,-204.85 264.81,-190.92 266.05,-180.1"/>
</g>
</g>
</svg>
