<?xml version="1.0" encoding="UTF-8" standalone="no"?>
<!DOCTYPE svg PUBLIC "-//W3C//DTD SVG 1.1//EN"
 "http://www.w3.org/Graphics/SVG/1.1/DTD/svg11.dtd">
<!-- Generated by graphviz version 12.2.1 (0)
 -->
<!-- Pages: 1 -->
<svg width="520pt" height="548pt"
 viewBox="0.00 0.00 519.82 548.00" xmlns="http://www.w3.org/2000/svg" xmlns:xlink="http://www.w3.org/1999/xlink">
<g id="graph0" class="graph" transform="scale(1 1) rotate(0) translate(4 544)">
<polygon fill="white" stroke="none" points="-4,4 -4,-544 515.82,-544 515.82,4 -4,4"/>
<!-- a11 -->
<g id="node1" class="node">
<title>a11</title>
<ellipse fill="none" stroke="black" cx="27" cy="-522" rx="27" ry="18"/>
<text text-anchor="middle" x="27" y="-516.95" font-family="Times,serif" font-size="14.00">a11</text>
</g>
<!-- a12 -->
<g id="node2" class="node">
<title>a12</title>
<ellipse fill="none" stroke="black" cx="27" cy="-450" rx="27" ry="18"/>
<text text-anchor="middle" x="27" y="-444.95" font-family="Times,serif" font-size="14.00">a12</text>
</g>
<!-- a11&#45;&#45;a12 -->
<g id="edge1" class="edge">
<title>a11&#45;&#45;a12</title>
<path fill="none" stroke="black" d="M27,-503.7C27,-492.85 27,-478.92 27,-468.1"/>
</g>
<!-- a13 -->
<g id="node3" class="node">
<title>a13</title>
<ellipse fill="none" stroke="black" cx="27" cy="-378" rx="27" ry="18"/>
<text text-anchor="middle" x="27" y="-372.95" font-family="Times,serif" font-size="14.00">a13</text>
</g>
<!-- a12&#45;&#45;a13 -->
<g id="edge2" class="edge">
<title>a12&#45;&#45;a13</title>
<path fill="none" stroke="black" d="M27,-431.7C27,-420.85 27,-406.92 27,-396.1"/>
</g>
<!-- a14 -->
<g id="node4" class="node">
<title>a14</title>
<ellipse fill="none" stroke="black" cx="27" cy="-306" rx="27" ry="18"/>
<text text-anchor="middle" x="27" y="-300.95" font-family="Times,serif" font-size="14.00">a14</text>
</g>
<!-- a13&#45;&#45;a14 -->
<g id="edge3" class="edge">
<title>a13&#45;&#45;a14</title>
<path fill="none" stroke="black" d="M27,-359.7C27,-348.85 27,-334.92 27,-324.1"/>
</g>
<!-- a21 -->
<g id="node5" class="node">
<title>a21</title>
<ellipse fill="none" stroke="black" cx="171" cy="-522" rx="27" ry="18"/>
<text text-anchor="middle" x="171" y="-516.95" font-family="Times,serif" font-size="14.00">a21</text>
</g>
<!-- a22 -->
<g id="node6" class="node">
<title>a22</title>
<ellipse fill="none" stroke="black" cx="171" cy="-450" rx="27" ry="18"/>
<text text-anchor="middle" x="171" y="-444.95" font-family="Times,serif" font-size="14.00">a22</text>
</g>
<!-- a21&#45;&#45;a22 -->
<g id="edge4" class="edge">
<title>a21&#45;&#45;a22</title>
<path fill="none" stroke="black" d="M171,-503.7C171,-492.85 171,-478.92 171,-468.1"/>
</g>
<!-- a23 -->
<g id="node7" class="node">
<title>a23</title>
<ellipse fill="none" stroke="black" cx="99" cy="-378" rx="27" ry="18"/>
<text text-anchor="middle" x="99" y="-372.95" font-family="Times,serif" font-size="14.00">a23</text>
</g>
<!-- a22&#45;&#45;a23 -->
<g id="edge5" class="edge">
<title>a22&#45;&#45;a23</title>
<path fill="none" stroke="black" d="M156.08,-434.5C143.72,-422.48 126.25,-405.49 113.9,-393.49"/>
</g>
<!-- a24 -->
<g id="node8" class="node">
<title>a24</title>
<ellipse fill="none" stroke="black" cx="171" cy="-378" rx="27" ry="18"/>
<text text-anchor="middle" x="171" y="-372.95" font-family="Times,serif" font-size="14.00">a24</text>
</g>
<!-- a22&#45;&#45;a24 -->
<g id="edge6" class="edge">
<title>a22&#45;&#45;a24</title>
<path fill="none" stroke="black" d="M171,-431.7C171,-420.85 171,-406.92 171,-396.1"/>
</g>
<!-- b11 -->
<g id="node9" class="node">
<title>b11</title>
<ellipse fill="none" stroke="black" cx="271" cy="-522" rx="27" ry="18"/>
<text text-anchor="middle" x="271" y="-516.95" font-family="Times,serif" font-size="14.00">b11</text>
</g>
<!-- b12 -->
<g id="node10" class="node">
<title>b12</title>
<ellipse fill="none" stroke="black" cx="243" cy="-450" rx="27" ry="18"/>
<text text-anchor="middle" x="243" y="-444.95" font-family="Times,serif" font-size="14.00">b12</text>
</g>
<!-- b11&#45;&#45;b12 -->
<g id="edge7" class="edge">
<title>b11&#45;&#45;b12</title>
<path fill="none" stroke="black" d="M264.36,-504.41C259.9,-493.25 254.04,-478.6 249.59,-467.47"/>
</g>
<!-- b13 -->
<g id="node11" class="node">
<title>b13</title>
<ellipse fill="none" stroke="black" cx="243" cy="-378" rx="27" ry="18"/>
<text text-anchor="middle" x="243" y="-372.95" font-family="Times,serif" font-size="14.00">b13</text>
</g>
<!-- b12&#45;&#45;b13 -->
<g id="edge8" class="edge">
<title>b12&#45;&#45;b13</title>
<path fill="none" stroke="black" d="M243,-431.7C243,-420.85 243,-406.92 243,-396.1"/>
</g>
<!-- b14 -->
<g id="node12" class="node">
<title>b14</title>
<ellipse fill="none" stroke="black" cx="243" cy="-306" rx="27" ry="18"/>
<text text-anchor="middle" x="243" y="-300.95" font-family="Times,serif" font-size="14.00">b14</text>
</g>
<!-- b13&#45;&#45;b14 -->
<g id="edge9" class="edge">
<title>b13&#45;&#45;b14</title>
<path fill="none" stroke="black" d="M243,-359.7C243,-348.85 243,-334.92 243,-324.1"/>
</g>
<!-- b15 -->
<g id="node13" class="node">
<title>b15</title>
<ellipse fill="none" stroke="black" cx="243" cy="-234" rx="27" ry="18"/>
<text text-anchor="middle" x="243" y="-228.95" font-family="Times,serif" font-size="14.00">b15</text>
</g>
<!-- b14&#45;&#45;b15 -->
<g id="edge10" class="edge">
<title>b14&#45;&#45;b15</title>
<path fill="none" stroke="black" d="M243,-287.7C243,-276.85 243,-262.92 243,-252.1"/>
</g>
<!-- b16 -->
<g id="node14" class="node">
<title>b16</title>
<ellipse fill="none" stroke="black" cx="243" cy="-162" rx="27" ry="18"/>
<text text-anchor="middle" x="243" y="-156.95" font-family="Times,serif" font-size="14.00">b16</text>
</g>
<!-- b15&#45;&#45;b16 -->
<g id="edge11" class="edge">
<title>b15&#45;&#45;b16</title>
<path fill="none" stroke="black" d="M243,-215.7C243,-204.85 243,-190.92 243,-180.1"/>
</g>
<!-- b17 -->
<g id="node15" class="node">
<title>b17</title>
<ellipse fill="none" stroke="black" cx="243" cy="-90" rx="27" ry="18"/>
<text text-anchor="middle" x="243" y="-84.95" font-family="Times,serif" font-size="14.00">b17</text>
</g>
<!-- b16&#45;&#45;b17 -->
<g id="edge12" class="edge">
<title>b16&#45;&#45;b17</title>
<path fill="none" stroke="black" d="M243,-143.7C243,-132.85 243,-118.92 243,-108.1"/>
</g>
<!-- b18 -->
<g id="node16" class="node">
<title>b18</title>
<ellipse fill="none" stroke="black" cx="270" cy="-18" rx="27" ry="18"/>
<text text-anchor="middle" x="270" y="-12.95" font-family="Times,serif" font-size="14.00">b18</text>
</g>
<!-- b17&#45;&#45;b18 -->
<g id="edge13" class="edge">
<title>b17&#45;&#45;b18</title>
<path fill="none" stroke="black" d="M249.54,-72.05C253.78,-61.05 259.29,-46.76 263.52,-35.79"/>
</g>
<!-- b18&#45;&#45;b11 -->
<g id="edge14" class="edge">
<title>b18&#45;&#45;b11</title>
<path fill="none" stroke="black" d="M275.53,-35.84C283.69,-62.21 298,-115.02 298,-161 298,-379 298,-379 298,-379 298,-424.92 284.2,-477.75 276.33,-504.15"/>
</g>
<!-- c11 -->
<g id="node17" class="node">
<title>c11</title>
<ellipse fill="none" stroke="black" cx="456" cy="-522" rx="27" ry="18"/>
<text text-anchor="middle" x="456" y="-516.95" font-family="Times,serif" font-size="14.00">c11</text>
</g>
<!-- c12 -->
<g id="node18" class="node">
<title>c12</title>
<ellipse fill="none" stroke="black" cx="418" cy="-450" rx="27" ry="18"/>
<text text-anchor="middle" x="418" y="-444.95" font-family="Times,serif" font-size="14.00">c12</text>
</g>
<!-- c11&#45;&#45;c12 -->
<g id="edge15" class="edge">
<title>c11&#45;&#45;c12</title>
<path fill="none" stroke="black" d="M447.19,-504.76C441.05,-493.46 432.89,-478.44 426.77,-467.15"/>
</g>
<!-- c13 -->
<g id="node19" class="node">
<title>c13</title>
<ellipse fill="none" stroke="black" cx="353" cy="-378" rx="27" ry="18"/>
<text text-anchor="middle" x="353" y="-372.95" font-family="Times,serif" font-size="14.00">c13</text>
</g>
<!-- c11&#45;&#45;c13 -->
<g id="edge20" class="edge">
<title>c11&#45;&#45;c13</title>
<path fill="none" stroke="black" d="M434.64,-510.55C418.09,-501.43 395.73,-486.74 382,-468 366.06,-446.24 358.6,-415.28 355.32,-396.2"/>
</g>
<!-- c12&#45;&#45;c13 -->
<g id="edge16" class="edge">
<title>c12&#45;&#45;c13</title>
<path fill="none" stroke="black" d="M404.22,-434.15C393.18,-422.28 377.79,-405.7 366.76,-393.82"/>
</g>
<!-- c14 -->
<g id="node20" class="node">
<title>c14</title>
<ellipse fill="none" stroke="black" cx="463" cy="-306" rx="27" ry="18"/>
<text text-anchor="middle" x="463" y="-300.95" font-family="Times,serif" font-size="14.00">c14</text>
</g>
<!-- c12&#45;&#45;c14 -->
<g id="edge23" class="edge">
<title>c12&#45;&#45;c14</title>
<path fill="none" stroke="black" d="M423.43,-431.87C432.12,-404.43 449.07,-350.95 457.69,-323.75"/>
</g>
<!-- c13&#45;&#45;c14 -->
<g id="edge17" class="edge">
<title>c13&#45;&#45;c14</title>
<path fill="none" stroke="black" d="M372.16,-364.81C392.35,-351.96 423.95,-331.85 444.06,-319.05"/>
</g>
<!-- c15 -->
<g id="node21" class="node">
<title>c15</title>
<ellipse fill="none" stroke="black" cx="435" cy="-234" rx="27" ry="18"/>
<text text-anchor="middle" x="435" y="-228.95" font-family="Times,serif" font-size="14.00">c15</text>
</g>
<!-- c13&#45;&#45;c15 -->
<g id="edge21" class="edge">
<title>c13&#45;&#45;c15</title>
<path fill="none" stroke="black" d="M359.48,-360.02C366.78,-341.67 379.53,-311.86 394,-288 402.2,-274.47 413.26,-260.36 421.83,-250.1"/>
</g>
<!-- c14&#45;&#45;c11 -->
<g id="edge24" class="edge">
<title>c14&#45;&#45;c11</title>
<path fill="none" stroke="black" d="M462.44,-324.23C461.12,-364.38 457.87,-463.78 456.56,-503.85"/>
</g>
<!-- c14&#45;&#45;c15 -->
<g id="edge18" class="edge">
<title>c14&#45;&#45;c15</title>
<path fill="none" stroke="black" d="M456.36,-288.41C451.9,-277.25 446.04,-262.6 441.59,-251.47"/>
</g>
<!-- c15&#45;&#45;c11 -->
<g id="edge19" class="edge">
<title>c15&#45;&#45;c11</title>
<path fill="none" stroke="black" d="M455.95,-245.76C471.01,-254.78 490.16,-269.2 499,-288 534.53,-363.56 486.68,-465.8 465.34,-504.89"/>
</g>
<!-- c15&#45;&#45;c12 -->
<g id="edge22" class="edge">
<title>c15&#45;&#45;c12</title>
<path fill="none" stroke="black" d="M432,-252.13C430.29,-262.49 428.24,-275.97 427,-288 421.63,-340.07 419.3,-401.98 418.44,-431.57"/>
</g>
</g>
</svg>
