<?xml version="1.0" encoding="UTF-8" standalone="no"?>
<!DOCTYPE svg PUBLIC "-//W3C//DTD SVG 1.1//EN"
 "http://www.w3.org/Graphics/SVG/1.1/DTD/svg11.dtd">
<!-- Generated by graphviz version 12.2.1 (0)
 -->
<!-- Pages: 1 -->
<svg width="175pt" height="260pt"
 viewBox="0.00 0.00 175.00 260.00" xmlns="http://www.w3.org/2000/svg" xmlns:xlink="http://www.w3.org/1999/xlink">
<g id="graph0" class="graph" transform="scale(1 1) rotate(0) translate(4 256)">
<polygon fill="white" stroke="none" points="-4,4 -4,-256 171,-256 171,4 -4,4"/>
<!-- a -->
<g id="node1" class="node">
<title>a</title>
<ellipse fill="none" stroke="black" cx="71" cy="-234" rx="27" ry="18"/>
<text text-anchor="middle" x="71" y="-228.95" font-family="Times,serif" font-size="14.00">a</text>
</g>
<!-- b -->
<g id="node2" class="node">
<title>b</title>
<ellipse fill="none" stroke="black" cx="27" cy="-90" rx="27" ry="18"/>
<text text-anchor="middle" x="27" y="-84.95" font-family="Times,serif" font-size="14.00">b</text>
</g>
<!-- a&#45;&#45;b -->
<g id="edge1" class="edge">
<title>a&#45;&#45;b</title>
<path fill="none" stroke="black" d="M65.69,-215.87C57.19,-188.43 40.62,-134.95 32.19,-107.75"/>
</g>
<!-- c -->
<g id="node3" class="node">
<title>c</title>
<ellipse fill="none" stroke="black" cx="99" cy="-162" rx="27" ry="18"/>
<text text-anchor="middle" x="99" y="-156.95" font-family="Times,serif" font-size="14.00">c</text>
</g>
<!-- a&#45;&#45;c -->
<g id="edge2" class="edge">
<title>a&#45;&#45;c</title>
<path fill="none" stroke="black" d="M77.64,-216.41C82.1,-205.25 87.96,-190.6 92.41,-179.47"/>
</g>
<!-- f -->
<g id="node4" class="node">
<title>f</title>
<ellipse fill="none" stroke="black" cx="54" cy="-18" rx="27" ry="18"/>
<text text-anchor="middle" x="54" y="-12.95" font-family="Times,serif" font-size="14.00">f</text>
</g>
<!-- b&#45;&#45;f -->
<g id="edge3" class="edge">
<title>b&#45;&#45;f</title>
<path fill="none" stroke="black" d="M33.54,-72.05C37.78,-61.05 43.29,-46.76 47.52,-35.79"/>
</g>
<!-- d -->
<g id="node5" class="node">
<title>d</title>
<ellipse fill="none" stroke="black" cx="99" cy="-90" rx="27" ry="18"/>
<text text-anchor="middle" x="99" y="-84.95" font-family="Times,serif" font-size="14.00">d</text>
</g>
<!-- c&#45;&#45;d -->
<g id="edge4" class="edge">
<title>c&#45;&#45;d</title>
<path fill="none" stroke="black" d="M99,-143.7C99,-132.85 99,-118.92 99,-108.1"/>
</g>
<!-- e -->
<g id="node6" class="node">
<title>e</title>
<ellipse fill="none" stroke="black" cx="140" cy="-18" rx="27" ry="18"/>
<text text-anchor="middle" x="140" y="-12.95" font-family="Times,serif" font-size="14.00">e</text>
</g>
<!-- c&#45;&#45;e -->
<g id="edge5" class="edge">
<title>c&#45;&#45;e</title>
<path fill="none" stroke="black" d="M112.48,-145.98C120.58,-135.98 130.22,-122.12 135,-108 143.09,-84.11 142.9,-54.56 141.7,-36.24"/>
</g>
<!-- d&#45;&#45;f -->
<g id="edge7" class="edge">
<title>d&#45;&#45;f</title>
<path fill="none" stroke="black" d="M88.79,-73.12C81.42,-61.66 71.53,-46.26 64.17,-34.82"/>
</g>
<!-- d&#45;&#45;e -->
<g id="edge6" class="edge">
<title>d&#45;&#45;e</title>
<path fill="none" stroke="black" d="M108.51,-72.76C115.13,-61.46 123.93,-46.44 130.54,-35.15"/>
</g>
</g>
</svg>
